<svg xmlns="http://www.w3.org/2000/svg" width="640" height="480" viewBox="0 0 640 480" fill="none" role="img" aria-labelledby="connected-systems-title connected-systems-desc">
<title id="connected-systems-title">Connected systems</title>
<desc id="connected-systems-desc">Customer information flows left to right from a customer system into scheduling, then invoicing. The same client identifier appears in each tool, showing that context is preserved.</desc>
<path d="M192 240H246" fill="none" stroke="#47603e" stroke-width="2.5" stroke-linecap="round" stroke-linejoin="round" /><path d="M238 234l8 6-8 6" fill="none" stroke="#47603e" stroke-width="2.5" stroke-linecap="round" stroke-linejoin="round" /><path d="M392 240H446" fill="none" stroke="#47603e" stroke-width="2.5" stroke-linecap="round" stroke-linejoin="round" /><path d="M438 234l8 6-8 6" fill="none" stroke="#47603e" stroke-width="2.5" stroke-linecap="round" stroke-linejoin="round" /><rect x="56" y="155" width="144" height="191" rx="8" fill="#dce3d3" stroke="none" stroke-width="2.4"/><rect x="48" y="145" width="144" height="191" rx="8" fill="#fcfaf7" stroke="#25332c" stroke-width="2.4"/><path d="M48 183H192" fill="none" stroke="#dce3d3" stroke-width="2" stroke-linecap="round" stroke-linejoin="round" /><circle cx="67" cy="164" r="3" fill="#d8a45b" stroke="none" stroke-width="2.4"/><circle cx="79" cy="164" r="3" fill="#779c69" stroke="none" stroke-width="2.4"/><circle cx="91" cy="164" r="3" fill="#dce3d3" stroke="none" stroke-width="2.4"/><rect x="256" y="155" width="144" height="191" rx="8" fill="#dce3d3" stroke="none" stroke-width="2.4"/><rect x="248" y="145" width="144" height="191" rx="8" fill="#fcfaf7" stroke="#25332c" stroke-width="2.4"/><path d="M248 183H392" fill="none" stroke="#dce3d3" stroke-width="2" stroke-linecap="round" stroke-linejoin="round" /><circle cx="267" cy="164" r="3" fill="#d8a45b" stroke="none" stroke-width="2.4"/><circle cx="279" cy="164" r="3" fill="#779c69" stroke="none" stroke-width="2.4"/><circle cx="291" cy="164" r="3" fill="#dce3d3" stroke="none" stroke-width="2.4"/><rect x="456" y="155" width="144" height="191" rx="8" fill="#dce3d3" stroke="none" stroke-width="2.4"/><rect x="448" y="145" width="144" height="191" rx="8" fill="#fcfaf7" stroke="#25332c" stroke-width="2.4"/><path d="M448 183H592" fill="none" stroke="#dce3d3" stroke-width="2" stroke-linecap="round" stroke-linejoin="round" /><circle cx="467" cy="164" r="3" fill="#d8a45b" stroke="none" stroke-width="2.4"/><circle cx="479" cy="164" r="3" fill="#779c69" stroke="none" stroke-width="2.4"/><circle cx="491" cy="164" r="3" fill="#dce3d3" stroke="none" stroke-width="2.4"/><circle cx="120" cy="220" r="20" fill="#dce3d3" stroke="none" stroke-width="2.4"/><circle cx="120" cy="215" r="7" fill="#47603e" stroke="none" stroke-width="2.4"/><path d="M106 234C106 220 134 220 134 234" fill="#47603e" stroke="none" stroke-width="0" stroke-linecap="round" stroke-linejoin="round" /><path d="M74 263H166" fill="none" stroke="#47603e" stroke-width="4" stroke-linecap="round" stroke-linejoin="round" /><path d="M74 281H153" fill="none" stroke="#779c69" stroke-width="2.5" stroke-linecap="round" stroke-linejoin="round" /><rect x="73" y="300" width="94" height="21" rx="4" fill="#efdfc5" stroke="none" stroke-width="2.4"/><circle cx="98" cy="309" r="3.5" fill="#47603e" stroke="none" stroke-width="2.4"/><path d="M92 316q6-10 12 0" fill="none" stroke="#47603e" stroke-width="1.5" stroke-linecap="round" stroke-linejoin="round" /><path d="M115 311H144" fill="none" stroke="#47603e" stroke-width="2" stroke-linecap="round" stroke-linejoin="round" /><rect x="266" y="201" width="108" height="85" rx="5" fill="#f9f3ed" stroke="#47603e" stroke-width="1.7"/><rect x="266" y="201" width="108" height="20" rx="5" fill="#dce3d3" stroke="none" stroke-width="2.4"/><path d="M267 221H373" fill="none" stroke="#47603e" stroke-width="1.5" stroke-linecap="round" stroke-linejoin="round" /><path d="M285 195L285 207" fill="none" stroke="#47603e" stroke-width="2.5" stroke-linecap="round" stroke-linejoin="round" /><path d="M355 195L355 207" fill="none" stroke="#47603e" stroke-width="2.5" stroke-linecap="round" stroke-linejoin="round" /><path d="M293 222L293 285" fill="none" stroke="#dce3d3" stroke-width="1.3" stroke-linecap="round" stroke-linejoin="round" /><path d="M320 222L320 285" fill="none" stroke="#dce3d3" stroke-width="1.3" stroke-linecap="round" stroke-linejoin="round" /><path d="M347 222L347 285" fill="none" stroke="#dce3d3" stroke-width="1.3" stroke-linecap="round" stroke-linejoin="round" /><path d="M267 242H373" fill="none" stroke="#dce3d3" stroke-width="1.3" stroke-linecap="round" stroke-linejoin="round" /><path d="M267 264H373" fill="none" stroke="#dce3d3" stroke-width="1.3" stroke-linecap="round" stroke-linejoin="round" /><rect x="322" y="244" width="23" height="18" rx="3" fill="#d8a45b" stroke="none" stroke-width="2.4"/><path d="M327 253l3.0 3.0 6.0 -7.199999999999999" fill="none" stroke="#47603e" stroke-width="2.8" stroke-linecap="round" stroke-linejoin="round" /><rect x="273" y="300" width="94" height="21" rx="4" fill="#efdfc5" stroke="none" stroke-width="2.4"/><circle cx="298" cy="309" r="3.5" fill="#47603e" stroke="none" stroke-width="2.4"/><path d="M292 316q6-10 12 0" fill="none" stroke="#47603e" stroke-width="1.5" stroke-linecap="round" stroke-linejoin="round" /><path d="M315 311H344" fill="none" stroke="#47603e" stroke-width="2" stroke-linecap="round" stroke-linejoin="round" /><path d="M466 206H533" fill="none" stroke="#47603e" stroke-width="2.5" stroke-linecap="round" stroke-linejoin="round" /><path d="M466 233H513" fill="none" stroke="#779c69" stroke-width="2" stroke-linecap="round" stroke-linejoin="round" /><path d="M558 233H574" fill="none" stroke="#779c69" stroke-width="2" stroke-linecap="round" stroke-linejoin="round" /><path d="M466 249H503" fill="none" stroke="#779c69" stroke-width="2" stroke-linecap="round" stroke-linejoin="round" /><path d="M558 249H574" fill="none" stroke="#779c69" stroke-width="2" stroke-linecap="round" stroke-linejoin="round" /><path d="M466 265H509" fill="none" stroke="#779c69" stroke-width="2" stroke-linecap="round" stroke-linejoin="round" /><path d="M558 265H574" fill="none" stroke="#779c69" stroke-width="2" stroke-linecap="round" stroke-linejoin="round" /><path d="M466 278H574" fill="none" stroke="#dce3d3" stroke-width="1.5" stroke-linecap="round" stroke-linejoin="round" /><path d="M545 286H574" fill="none" stroke="#25332c" stroke-width="3" stroke-linecap="round" stroke-linejoin="round" /><rect x="473" y="300" width="94" height="21" rx="4" fill="#efdfc5" stroke="none" stroke-width="2.4"/><circle cx="498" cy="309" r="3.5" fill="#47603e" stroke="none" stroke-width="2.4"/><path d="M492 316q6-10 12 0" fill="none" stroke="#47603e" stroke-width="1.5" stroke-linecap="round" stroke-linejoin="round" /><path d="M515 311H544" fill="none" stroke="#47603e" stroke-width="2" stroke-linecap="round" stroke-linejoin="round" />
</svg>
